<svg width="173" height="43" viewBox="0 0 173 43" fill="none" xmlns="http://www.w3.org/2000/svg">
<path d="M64.0805 27.4952C64.0805 27.7063 63.8999 27.8872 63.5687 28.038C63.2075 28.1888 62.8763 28.3095 62.5452 28.4301C61.07 29.0634 59.8357 29.365 58.8724 29.365C58.4509 29.365 58.0595 29.3047 57.7284 29.2142C57.3972 29.5158 57.1263 29.7269 56.9155 29.8174C56.7048 29.9078 56.3436 29.938 55.892 29.938C55.621 29.938 55.2899 29.757 54.8985 29.3951C54.477 29.0332 54.2663 28.7317 54.2663 28.4602C54.2663 28.219 54.3867 27.9777 54.5975 27.7968C54.8082 27.6158 55.049 27.5254 55.32 27.5254C55.4103 27.5254 55.5608 27.6158 55.8017 27.7968C56.0425 27.9777 56.2833 28.0682 56.5242 28.0682L56.9155 28.1285C57.0661 28.1587 57.1564 28.1587 57.2166 28.0682C57.4574 27.7365 57.6682 27.1031 57.8488 26.1683C58.0294 25.2937 58.1197 24.4794 58.1197 23.7858C58.1197 23.5144 58.0595 23.2429 57.9692 22.9414C57.8488 22.6398 57.7585 22.5192 57.6381 22.5192C57.3972 22.5192 56.6747 23.1826 55.5006 24.5096C54.748 25.354 54.1459 26.2587 53.6642 27.2539C53.2729 28.038 52.9116 28.8221 52.5503 29.6063C52.3396 30.3602 52.1289 31.1141 51.9181 31.8983C51.5569 33.1649 51.1956 34.1902 50.8344 35.0347C50.443 36.06 50.0516 37.1156 49.6603 38.1409C49.1786 39.2568 48.6969 39.7996 48.155 39.7996C47.8239 39.7996 47.6733 39.5885 47.6733 39.1964C47.6733 38.8044 48.0647 37.5076 48.8474 35.3362C49.4194 33.7379 49.8409 32.6522 50.0817 32.0792C50.5333 31.0538 51.0752 30.0586 51.7074 29.0634C52.1289 27.646 52.7611 25.3238 53.6642 22.0969C53.9954 21.0414 54.3867 19.624 54.8082 17.8145C54.3566 18.4177 53.604 19.5335 52.5804 21.162C51.587 22.7001 50.8344 23.8159 50.2624 24.5397C48.6066 26.6508 47.4626 28.0079 46.8304 28.611C45.5359 29.8174 44.2113 30.3904 42.8566 30.3904C42.2243 30.3904 41.7126 30.0888 41.3513 29.4555C41.0202 28.9126 40.8696 28.3095 40.8696 27.5857C40.8696 26.9524 41.0503 25.9873 41.3814 24.7207C41.7427 23.3334 42.1942 22.0366 42.706 20.8605C43.6995 18.5383 44.7231 16.8193 45.7466 15.6733C47.0411 14.2257 48.1851 13.502 49.1184 13.502C49.5097 13.502 49.8409 13.6226 50.1118 13.8638C50.4731 14.1353 50.6236 14.4972 50.6236 14.9495C50.6236 16.4273 50.172 18.1161 49.299 20.1065C49.0582 20.6192 48.6367 21.3128 47.9744 22.1573C47.3121 23.0017 46.8906 23.454 46.7401 23.454C46.5294 23.454 46.4089 23.3937 46.4089 23.2731C46.4089 23.062 46.6799 22.5191 47.2519 21.6747C47.9142 20.6795 48.3658 19.8954 48.5765 19.3224C49.1786 17.6939 49.4796 16.3971 49.4796 15.4622C49.4796 14.9495 49.2689 14.7083 48.8775 14.7083C48.4862 14.7083 48.0346 14.9194 47.4927 15.3114C46.8906 15.7336 46.3788 16.2765 45.9574 16.9098C44.8435 18.5685 43.9704 20.2573 43.3382 22.0065C42.977 23.0017 42.6759 24.0874 42.405 25.3238C42.1641 26.4397 42.0437 27.2238 42.0437 27.6761C42.0437 28.6714 42.4652 29.1539 43.3382 29.1539C45.0241 29.1539 47.2218 27.2539 49.9613 23.4842C51.2257 21.7652 52.46 19.8954 53.7244 17.905C55.1394 15.6432 56.0726 14.5273 56.5543 14.5273C56.8252 14.5273 56.9457 14.6781 56.9457 14.9797C56.9457 15.0702 56.9457 15.1305 56.9155 15.2209C56.8252 15.613 56.7048 16.0654 56.4941 16.6685C56.193 17.5129 56.0124 18.0558 55.9522 18.2971C55.5307 19.8653 54.9286 22.0366 54.1459 24.8112C55.9221 22.6699 57.0962 21.5843 57.6682 21.5843C58.0595 21.5843 58.3606 21.7954 58.6616 22.1874C58.9326 22.5795 59.0831 23.0318 59.0831 23.5445C59.0831 24.2985 58.9928 25.2032 58.8423 26.2587C58.6616 27.3143 58.5111 27.9777 58.3305 28.2793C58.5111 28.3999 58.7519 28.4602 59.0831 28.4602C59.7153 28.4602 60.769 28.219 62.2742 27.7666C62.4247 27.7063 62.6957 27.5857 63.1172 27.3746C63.4483 27.2238 63.6892 27.1635 63.8698 27.1635C63.9601 26.9524 64.0805 27.1333 64.0805 27.4952Z" fill="#FBB857"/>
<path d="M77.2663 28.6409C77.2663 28.9727 76.5438 29.425 75.0987 29.998C73.6236 30.571 72.5398 30.8726 71.8474 30.8726C71.426 30.8726 71.0647 30.6615 70.7335 30.2393C70.4024 29.8171 70.2519 29.3949 70.282 28.9425C70.3121 28.3092 70.4927 27.6156 70.7937 26.9219C70.0712 27.6457 68.8369 28.4298 67.0908 29.3044C65.4351 30.1187 64.4115 30.5107 64.0503 30.4805C63.3277 30.4202 62.9966 30.0583 62.9966 29.3346C62.9966 28.7917 63.117 28.3393 63.3277 27.9171C63.6288 27.4346 63.99 27.2235 64.4115 27.314C64.7126 27.3743 64.7728 27.5552 64.6524 27.8267C64.562 28.0076 64.4416 28.3092 64.3212 28.7615C64.261 29.0028 64.4115 29.1536 64.7427 29.1536C65.134 29.1838 66.8801 28.2489 69.9508 26.3791C70.583 25.987 71.1851 25.595 71.8173 25.2029C72.5699 24.7506 73.172 24.5093 73.5935 24.449C73.6537 24.449 73.7139 24.4791 73.744 24.5696C73.7741 24.6601 73.8042 24.7204 73.7741 24.7807C73.4731 25.0823 72.9914 25.6553 72.299 26.4696C71.6969 27.2838 71.3958 28.0076 71.3657 28.7012C71.3356 28.9727 71.426 29.2139 71.5464 29.425C71.6969 29.6964 71.8775 29.8472 72.1485 29.8472C72.3893 29.8774 73.2322 29.606 74.6773 29.0933C76.1223 28.5806 76.905 28.3092 77.0255 28.3393C77.176 28.4298 77.2663 28.5203 77.2663 28.6409Z" fill="#FBB857"/>
<path d="M86.4183 27.8578C86.0269 27.707 85.7861 27.5864 85.7258 27.4658L85.3646 26.7721C85.0033 27.0134 84.5518 27.3753 84.0099 27.8578C83.3777 28.4911 83.0465 28.9133 83.0465 29.1244C83.0465 29.2752 83.2572 29.426 83.7088 29.5165C84.04 29.607 84.5216 29.426 85.184 29.0038C85.8463 28.5816 86.2376 28.1895 86.4183 27.8578ZM91.1748 27.4658C91.1748 27.7372 90.362 27.9181 88.7062 28.0388H87.6225C87.0806 28.5213 86.5387 29.034 86.0269 29.5165C85.2442 30.1196 84.3109 30.4212 83.2271 30.4212C82.8057 30.4212 82.3842 30.1196 81.9326 29.5165C81.4811 29.6974 80.7886 29.9689 79.7952 30.3308C79.2232 30.4514 78.32 30.6625 77.0857 30.9339C76.9653 30.9641 76.7847 31.0244 76.4836 31.1149C76.2428 31.2053 76.0923 31.2355 76.0321 31.2355C75.7611 31.2355 75.6106 31.0545 75.6106 30.7228C75.6106 30.4815 75.9116 30.0593 76.4836 29.5165C77.0255 29.034 77.5674 28.5514 78.1394 28.0388C79.5844 26.7118 80.3672 26.0483 80.5478 26.0483C80.8187 26.0483 80.9693 26.169 80.9693 26.4404C80.9693 26.6213 80.7585 26.8626 80.3672 27.2245C79.9457 27.5864 79.5543 27.9181 79.163 28.28C78.3501 29.0943 77.6878 29.6974 77.2062 30.0895C77.9287 29.999 78.6211 29.8482 79.2533 29.6974C80.0661 29.4863 80.9392 29.1546 81.9326 28.6721C82.2036 28.3705 82.7154 27.8277 83.5282 27.0737C85.3044 25.6261 86.7494 24.9023 87.8633 24.9023C88.074 24.9023 88.2848 24.9928 88.4654 25.1436C88.646 25.2944 88.7363 25.5055 88.7363 25.7769C88.7363 26.2293 88.6159 26.6515 88.3751 27.0737C88.5557 27.134 88.7965 27.134 89.0073 27.134C89.3083 27.134 89.6395 27.1039 90.0308 27.0134C90.4222 26.9229 90.663 26.8928 90.7534 26.8928C91.0544 26.8626 91.1748 27.0737 91.1748 27.4658Z" fill="#FBB857"/>
<path d="M100.146 27.5556C100.146 27.7667 99.7548 28.0382 99.0022 28.4001C98.9118 28.4604 98.2194 28.762 96.8647 29.3349C96.1121 29.6667 95.3896 29.9984 94.6369 30.3603C93.9144 30.6317 93.1618 30.7825 92.3791 30.7825C91.9275 30.7825 91.5662 30.6317 91.2953 30.3603C91.0545 30.1191 90.934 29.8476 90.934 29.5159C90.934 29.3651 91.205 29.0032 91.777 28.4604C92.349 27.9175 92.9511 27.435 93.6134 27.043C94.0649 26.7715 94.4864 26.5001 94.938 26.2287C95.4197 25.8969 95.6304 25.5954 95.6304 25.3239C95.6304 25.2636 95.5702 25.2335 95.4498 25.2335C94.938 25.2335 94.1252 25.4747 93.0113 25.9874C92.5296 26.1985 91.8974 26.6811 91.0846 27.3747C90.3921 27.9778 89.9707 28.3096 89.8202 28.3096C89.5191 28.3096 89.3987 28.1889 89.3987 27.9477C89.3987 27.7366 89.7599 27.2842 90.4524 26.5906C91.2351 25.8065 91.9877 25.2636 92.7102 24.9319C93.6435 24.5097 94.7273 24.2986 95.9917 24.2986C96.2626 24.2986 96.4733 24.4192 96.6239 24.6303C96.8045 24.8414 96.8647 25.0827 96.8647 25.3541C96.8647 26.0176 95.9917 26.862 94.2155 27.9175C93.7338 28.1889 93.3123 28.4905 92.921 28.8223C92.5296 29.154 92.3189 29.3953 92.3189 29.546C92.3189 29.6365 92.3791 29.727 92.4694 29.8175C92.5597 29.9079 92.65 29.9683 92.7403 29.9683C93.1016 29.9683 93.6736 29.8175 94.5165 29.4857C95.2992 29.154 96.0519 28.8223 96.8045 28.5207C97.1658 28.3699 97.7377 28.0985 98.5807 27.7064C99.2129 27.4048 99.5742 27.254 99.6645 27.254C99.9956 27.2239 100.146 27.3144 100.146 27.5556Z" fill="#FBB857"/>
<path d="M105.987 28.6416C105.987 28.8527 105.355 29.2146 104.12 29.6971C102.765 30.2701 101.622 30.5415 100.718 30.5415C99.9657 30.5415 99.3937 30.3907 98.9422 30.1193C98.4906 29.8479 98.2498 29.486 98.2498 29.0939C98.2498 28.3098 98.882 27.3448 100.116 26.2289C100.809 25.6258 101.561 25.0226 102.404 24.4496C103.187 23.9369 103.669 23.6655 103.849 23.6655C104.331 23.6655 104.572 23.8766 104.572 24.2687C104.572 24.8718 103.909 25.6559 102.615 26.5908C101.591 27.3448 100.748 27.8876 100.116 28.2194C99.6647 28.5209 99.454 28.8225 99.454 29.0638C99.454 29.486 99.9356 29.6669 100.899 29.6669C101.561 29.6669 102.495 29.4257 103.669 28.9432C104.843 28.4606 105.475 28.2194 105.535 28.2194C105.836 28.2797 105.987 28.4003 105.987 28.6416Z" fill="#FBB857"/>
<path d="M120.919 27.1632C120.919 27.3442 120.557 27.495 119.835 27.6458C119.112 27.7966 118.42 27.9473 117.728 28.1283C116.523 28.46 114.838 28.9124 112.64 29.4854C112.218 29.6663 111.827 29.8171 111.436 29.9679C111.044 30.1187 110.713 30.2092 110.472 30.2092C110.081 30.2092 109.87 30.0282 109.87 29.6663C109.87 29.5155 109.93 29.4251 110.111 29.3648C110.412 29.3044 110.593 29.214 110.713 29.1235C111.436 28.5505 111.797 28.1283 111.797 27.8569C111.797 27.5854 111.737 27.4347 111.646 27.4347C111.135 27.4347 110.412 27.6759 109.389 28.1283C108.847 28.3696 108.515 28.5203 108.365 28.5203C108.184 28.5203 107.913 28.3997 107.492 28.1283C107.07 28.4299 106.197 29.2441 104.843 30.5409C102.886 32.4107 101.652 33.5869 101.11 34.0995C100.417 34.7329 98.6712 36.4519 95.9015 39.1962C94.0049 41.0962 92.9513 42.0311 92.7405 42.0311C92.3191 42.0311 92.1384 41.8501 92.1384 41.4882C92.1384 41.247 94.8178 38.5328 100.207 33.3758C101.923 31.7472 103.97 29.8473 106.348 27.6759C108.546 25.6855 111.105 23.4538 113.995 21.0412C114.657 20.4682 115.44 19.9254 116.313 19.3524C117.186 18.8095 117.758 18.5381 117.968 18.5381C118.179 18.5381 118.269 18.6889 118.269 18.9603C118.269 19.0809 117.938 19.3524 117.246 19.8349C116.162 20.5888 115.289 21.2221 114.657 21.7348C113.573 22.6094 112.429 23.6046 111.165 24.7506C110.021 25.8061 109.268 26.5299 108.937 26.922C108.997 26.9823 109.057 27.0125 109.087 27.0728C109.178 27.1632 109.298 27.1934 109.419 27.1632C109.84 27.0426 110.472 26.8617 111.375 26.6204C112.068 26.4395 112.61 26.349 113.061 26.349C113.302 26.349 113.483 26.4394 113.694 26.5902C113.874 26.741 113.964 26.922 113.964 27.1632C113.964 27.4648 113.663 27.9172 113.061 28.5203C113.934 28.2791 115.349 27.9172 117.366 27.4347C119.203 27.0426 120.286 26.8617 120.618 26.8617C120.798 26.8617 120.919 26.9521 120.919 27.1632Z" fill="#FBB857"/>
<path d="M136.995 16.4574C136.995 17.4828 136.332 18.6288 135.038 19.8652C133.743 21.1017 132.66 21.735 131.786 21.735C131.425 21.735 131.154 21.6445 130.913 21.4636C130.612 21.2827 130.492 21.0112 130.492 20.7097C130.492 19.9255 131.064 19.3526 132.238 18.9303C132.389 18.87 132.509 19.051 132.629 19.3827C132.75 19.7446 132.87 19.9255 133.021 19.9255C133.322 19.9255 133.803 19.5938 134.466 18.9605C135.188 18.2367 135.55 17.6034 135.55 17.0304C135.55 16.8494 135.459 16.6987 135.309 16.578C135.158 16.4574 135.008 16.3669 134.917 16.3669C134.616 16.3669 134.044 16.578 133.171 16.9701C131.907 17.5431 130.673 18.3573 129.438 19.3525C127.572 20.8906 125.826 22.489 124.26 24.1778C122.273 26.2587 121.28 27.7967 121.28 28.792C121.28 28.9126 121.34 29.0031 121.46 29.1237C121.581 29.2443 121.701 29.2745 121.822 29.2745C122.906 29.2745 125.163 28.8523 128.625 28.038C129.8 27.7666 131.365 27.2841 133.382 26.6507C135.158 26.0777 136.061 25.7762 136.091 25.7762C136.483 25.7762 136.663 25.8968 136.663 26.1682C136.663 26.3492 135.821 26.7412 134.135 27.3444C132.69 27.8571 131.124 28.3396 129.438 28.8221C125.645 29.8776 122.966 30.3903 121.43 30.3903C120.407 30.3903 119.895 29.8776 119.895 28.8221C119.895 28.4301 120.166 27.7968 120.738 26.892C121.4 25.8063 122.303 24.6302 123.478 23.3635C124.892 21.8255 127 19.9557 129.769 17.7542C130.642 17.0605 131.726 16.4272 133.021 15.8844C134.165 15.4019 135.008 15.1606 135.55 15.1606C136.483 15.1003 136.995 15.5527 136.995 16.4574Z" fill="#FBB857"/>
<path d="M137.446 27.615C137.506 27.4039 137.506 27.1325 137.446 26.8309C137.356 26.4388 137.236 26.1976 137.085 26.1071C136.362 26.4087 135.79 26.8309 135.309 27.3134C134.225 28.4594 133.713 29.2737 133.713 29.8467C133.713 30.0879 133.804 30.2387 133.954 30.2387C134.677 30.2086 135.821 29.334 137.446 27.615ZM143.618 27.3134C143.618 27.5547 143.256 27.7959 142.534 27.9769C141.811 28.1578 141.029 28.2483 140.246 28.2483C139.704 28.2483 139.192 28.1277 138.65 27.8864C137.506 29.0626 136.754 29.8165 136.332 30.1181C135.429 30.8117 134.556 31.1736 133.683 31.1736C133.382 31.1736 133.141 31.053 132.931 30.7816C132.72 30.5101 132.599 30.2689 132.599 30.0578C132.599 29.5451 132.84 28.9118 133.292 28.1277C133.773 27.3737 134.376 26.6499 135.128 25.9563C135.73 25.4135 136.483 24.9611 137.356 24.5992C138.048 24.3278 138.56 24.177 138.891 24.177C139.072 24.177 139.313 24.2976 139.554 24.5389C139.794 24.7802 139.915 25.0516 139.915 25.3833C139.915 25.7151 139.734 26.2579 139.343 27.0722C139.554 27.1928 139.915 27.2833 140.457 27.4039C140.878 27.4039 141.42 27.3436 142.082 27.2531C142.775 27.1626 143.136 27.1023 143.226 27.1023C143.497 27.1023 143.618 27.1928 143.618 27.3134Z" fill="#FBB857"/>
<path d="M154.335 28.5805C154.335 28.7011 154.094 28.8217 153.643 28.882C153.191 28.9725 152.739 29.0328 152.318 29.1233C151.294 29.3344 150.542 29.5455 150 29.7265C149.428 30.1185 148.615 30.8121 147.501 31.8375C146.357 32.893 145.454 33.6771 144.792 34.1597C143.889 34.8533 142.985 35.5771 142.082 36.2707C141.089 37.0548 140.517 37.4167 140.366 37.4167C140.005 37.4167 139.824 37.1453 139.824 36.6024C139.824 36.512 140.126 35.939 140.698 34.9136C141.39 33.7375 141.992 32.8026 142.534 32.0788C143.256 31.1137 144.129 30.1185 145.123 29.0931C144.581 29.2741 143.859 29.3344 142.985 29.2439C142.564 29.2138 142.263 29.1535 142.112 29.0328C141.902 28.882 141.781 28.6408 141.781 28.309C141.781 28.1582 142.052 27.7662 142.624 27.1027C143.196 26.4392 143.768 25.8662 144.37 25.3536C145.063 24.7806 145.755 24.2679 146.508 23.8155C147.381 23.3028 148.043 23.0616 148.495 23.0616C148.615 23.0616 148.675 23.1219 148.705 23.2124C148.675 23.152 148.675 23.2727 148.675 23.6044C148.675 23.7552 148.495 24.0869 148.164 24.5695C147.832 25.052 147.561 25.3234 147.351 25.3234C147.26 25.3234 147.17 25.2329 147.11 25.052C147.05 24.871 146.959 24.7504 146.869 24.6599C146.478 24.8107 145.876 25.2028 145.063 25.8361C143.949 26.7107 143.377 27.344 143.377 27.7662C143.377 27.8265 143.527 27.917 143.798 28.0075C143.889 28.0376 144.009 28.0678 144.129 28.0678C144.521 28.0678 145.514 27.8265 147.11 27.3138C148.013 26.59 149.488 25.444 151.595 23.8758C153.071 22.8203 153.853 22.3076 153.914 22.3076C154.154 22.3076 154.245 22.4584 154.245 22.76C154.245 22.8806 154.004 23.1219 153.522 23.4536C153.041 23.7854 152.589 24.1171 152.137 24.4488C151.144 25.2028 149.548 26.4996 147.321 28.309C145.936 29.5757 144.942 30.5709 144.31 31.355C143.347 32.5311 142.353 33.9486 141.269 35.6374C142.805 34.612 144.16 33.5565 145.334 32.501C145.876 32.0486 146.718 31.2645 147.893 30.1185C147.893 29.9677 147.862 29.7868 147.832 29.5757C147.802 29.3646 147.772 29.2138 147.772 29.0931C147.772 28.7614 148.133 28.3694 148.886 27.9471C149.548 27.5551 150 27.344 150.241 27.344C150.662 27.344 150.873 27.4948 150.933 27.8265C150.963 27.9471 150.903 28.0678 150.783 28.2186C150.662 28.3694 150.602 28.49 150.602 28.5503C150.993 28.49 151.535 28.4297 152.288 28.309C152.77 28.2186 153.221 28.1884 153.673 28.1884C154.154 28.2186 154.335 28.3392 154.335 28.5805Z" fill="#FBB857"/>
<path d="M173 28.3398C173 28.4604 172.759 28.6715 172.247 28.9731C171.735 29.2747 171.224 29.5159 170.682 29.6969C168.845 30.3302 167.43 30.6619 166.377 30.6619C166.016 30.6619 165.714 30.5715 165.444 30.3603C165.173 30.1492 165.052 29.908 165.052 29.5762C165.052 29.3953 165.293 29.0636 165.745 28.5207C166.136 28.0985 166.527 27.6763 166.889 27.2239C165.895 27.3747 164.721 27.7969 163.396 28.4604C161.319 29.4858 160.205 29.9985 160.025 29.9985C159.663 29.9985 159.513 29.7873 159.513 29.3953C159.513 29.1842 159.814 28.7921 160.416 28.2191C161.018 27.6461 161.319 27.2842 161.319 27.0731C161.319 26.8922 161.259 26.8017 161.108 26.8017C160.597 26.8017 159.001 27.435 156.292 28.7017C156.141 28.762 155.419 29.154 154.154 29.8477C153.311 30.3 152.769 30.5413 152.559 30.5413C152.258 30.5413 152.137 30.3603 152.137 29.9683C152.137 29.6366 153.01 28.762 154.756 27.3747C156.502 25.9875 157.586 25.2637 158.068 25.2637C158.309 25.2637 158.399 25.3541 158.399 25.5653C158.399 25.6859 158.068 25.9875 157.436 26.5001C156.683 27.1033 156.262 27.4953 156.111 27.7065C156.111 27.7065 156.773 27.4954 158.068 27.043C158.309 26.9525 159.091 26.6509 160.386 26.1382C161.259 25.8065 161.801 25.6557 162.042 25.6557C162.433 25.6557 162.734 25.7764 162.975 25.9875C163.216 26.1986 163.306 26.47 163.246 26.8017C163.186 27.2842 163.065 27.6461 162.915 27.8874C163.547 27.5858 164.54 27.1636 165.955 26.5906C167.4 26.1081 168.364 25.8668 168.845 25.8668C169.177 25.8668 169.327 26.0478 169.327 26.4097C169.327 26.5605 169.086 26.8017 168.574 27.1335C167.912 27.5557 167.491 27.8874 167.28 28.1287C166.557 28.9429 166.196 29.4255 166.196 29.6064C166.196 29.8175 166.437 29.908 166.889 29.908C167.581 29.908 168.665 29.6667 170.17 29.1842C170.561 29.0636 171.073 28.8525 171.766 28.5509C172.368 28.2795 172.669 28.1588 172.729 28.1588C172.91 28.1287 173 28.189 173 28.3398Z" fill="#FBB857"/>
<path d="M13.3363 15.429C14.2058 15.429 14.858 15.7774 15.3797 16.3872C16.9884 18.1729 18.6406 19.9586 20.2493 21.7008C21.1623 22.7026 20.9015 24.0528 19.6406 24.9674C19.2493 25.2723 18.771 25.4901 18.3363 25.7514C15.5971 27.3194 12.8145 28.9309 10.0754 30.4989C8.29278 31.5442 6.46669 31.762 5.07539 30.0634C3.64061 28.3212 2.03191 26.6661 0.510172 25.011C-0.272436 24.1835 -0.14201 23.051 0.814512 22.0928C1.11886 21.7879 1.46669 21.5702 1.81452 21.396C4.81452 19.6538 7.81451 17.9551 10.771 16.2129C11.6406 15.7338 12.4667 15.429 13.3363 15.429Z" fill="#FBB857"/>
<path d="M27.8577 16.7794C26.7273 17.8683 25.5969 18.9571 24.4664 20.0025C23.8577 20.5687 23.3795 20.438 23.1621 19.7847C22.8577 18.8265 22.5534 17.8247 22.2925 16.8665C22.2056 16.6052 22.2056 16.3439 22.249 16.2132C22.3795 15.647 22.6404 15.255 22.9882 14.9065C24.0317 13.9048 25.0751 12.9466 26.1186 11.9884C26.9012 11.2915 27.336 11.3786 27.5969 12.2497C27.8577 13.1208 28.0751 13.9919 28.3795 14.8194C28.6403 15.5599 28.4229 16.2132 27.8577 16.7794ZM34.7708 8.54756C34.0316 6.15205 33.2925 3.71298 32.5969 1.31747C32.1621 -0.119833 30.8577 -0.468268 29.5969 0.70771C26.6403 3.4081 23.7273 6.10849 20.8577 8.896C19.6838 10.0284 19.0751 11.4657 19.5099 12.9466C20.2491 15.647 21.1186 18.2603 21.9012 20.9171C22.0751 21.5269 22.5534 21.7882 23.1621 21.7882C23.8143 21.7882 24.3795 21.5269 24.9012 21.0478C27.6838 18.4345 30.5099 15.8212 33.2925 13.2079C34.1186 12.4239 34.6838 11.4657 34.9447 10.2026C35.0751 9.67998 34.9447 9.11377 34.7708 8.54756Z" fill="#EF5225"/>
<path d="M24.6406 33.7652C24.4667 34.8541 23.8145 35.6816 23.0754 36.4221C21.0319 38.3385 19.0319 40.2113 16.9884 42.1277C16.6406 42.4326 16.3362 42.6939 15.9015 42.8682C15.0319 43.173 14.4667 42.9553 14.2058 42.1277C13.5971 40.1678 13.0319 38.2078 12.4232 36.2914C11.9884 34.9412 12.4232 33.6781 13.5102 32.5892C15.6841 30.4551 17.945 28.3644 20.2058 26.2738C21.1623 25.3591 22.5536 25.2285 22.9015 26.7529C23.3363 28.6693 24.0319 30.5422 24.5971 32.415C24.7275 32.807 24.771 33.2861 24.6406 33.7652Z" fill="#BABABA"/>
<path d="M27.0319 26.8843C26.6841 26.8407 26.3798 26.7101 26.1624 26.4488C25.5972 25.7954 24.9884 25.1421 24.3797 24.4888C23.9884 24.0532 24.0319 23.5306 24.5971 23.1822C25.945 22.3111 27.2928 21.5271 28.6841 20.8302C29.1624 20.6124 29.5971 20.656 29.9015 20.9609C30.5971 21.7013 31.2928 22.4417 31.945 23.1822C32.2493 23.5306 32.1624 23.9661 31.771 24.271C30.3363 25.2292 28.858 26.1439 27.2928 26.7972C27.2058 26.8843 27.1189 26.8843 27.0319 26.8843Z" fill="#BABABA"/>
</svg>
